<?xml version="1.0" standalone="no"?><!DOCTYPE svg PUBLIC "-//W3C//DTD SVG 1.1//EN" "http://www.w3.org/Graphics/SVG/1.1/DTD/svg11.dtd"><svg t="1765699455373" class="icon" viewBox="0 0 1024 1024" version="1.1" xmlns="http://www.w3.org/2000/svg" p-id="2007" xmlns:xlink="http://www.w3.org/1999/xlink" width="200" height="200"><path d="M512.249878 511.750122m-511.750122 0a511.750122 511.750122 0 1 0 1023.500244 0 511.750122 511.750122 0 1 0-1023.500244 0Z" fill="#E6F0FC" p-id="2008"></path><path d="M208.398243 191.906296a15.992191 15.992191 0 0 1 15.992191-15.992192h79.960957a15.992191 15.992191 0 0 1 15.992191 15.992192v191.906296a15.992191 15.992191 0 0 1-15.992191 15.992191h-79.960957a15.992191 15.992191 0 0 1-15.992191-15.992191z" fill="#154E84" p-id="2009"></path><path d="M240.382626 207.898487v159.921913h47.976574v-159.921913h-47.976574z" fill="#FFC200" p-id="2010"></path><path d="M304.25144 399.804783a15.992191 15.992191 0 0 1-15.89224-15.992191v-95.953148a15.992191 15.992191 0 0 1 15.992191-15.992192h79.960956a15.992191 15.992191 0 0 1 15.992192 15.992192V384.312347a15.992191 15.992191 0 0 1-16.092143 15.992192z" fill="#154E84" p-id="2011"></path><path d="M368.320156 368.21021V303.851635h-47.976574v64.068716l47.976574 0.289859z" fill="#FFC200" p-id="2012"></path><path d="M384.312347 591.711079a15.992191 15.992191 0 0 1-15.992191-15.992192v-351.828209a15.992191 15.992191 0 0 1 15.992191-15.992191h79.960957a15.992191 15.992191 0 0 1 15.992191 15.992191v351.828209a15.992191 15.992191 0 0 1-15.992191 15.992192z" fill="#154E84" p-id="2013"></path><path d="M400.304539 559.726696h47.976574v-319.843826h-47.976574v319.843826z" fill="#FFC200" p-id="2014"></path><path d="M464.273304 527.742313a15.992191 15.992191 0 0 1-15.992191-15.992191v-159.921913a15.992191 15.992191 0 0 1 15.992191-15.992191h95.953148a15.992191 15.992191 0 0 1 15.992191 15.992191v159.921913a15.992191 15.992191 0 0 1-15.992191 15.992191z" fill="#154E84" p-id="2015"></path><path d="M480.265495 495.757931h63.968766v-127.937531h-63.968766v127.937531z" fill="#FFC200" p-id="2016"></path><path d="M544.234261 303.851635a15.992191 15.992191 0 0 1 15.992191-15.992191h79.960956a15.992191 15.992191 0 0 1 15.992192 15.992191v191.906296a15.992191 15.992191 0 0 1-15.992192 15.992191h-79.960956a15.992191 15.992191 0 0 1-15.992191-15.992191z" fill="#154E84" p-id="2017"></path><path d="M576.218643 319.843826v159.921913h47.976574v-159.921913h-47.976574z" fill="#FFC200" p-id="2018"></path><path d="M704.156174 271.867252a15.992191 15.992191 0 0 1 15.992191-15.992191h79.960957a15.992191 15.992191 0 0 1 15.992191 15.992191v223.890679a15.992191 15.992191 0 0 1-15.992191 15.992191h-79.960957a15.992191 15.992191 0 0 1-15.992191-15.992191z" fill="#154E84" p-id="2019"></path><path d="M736.140556 287.859444v191.906295h47.976574v-191.906295h-47.976574z" fill="#FFC200" p-id="2020"></path><path d="M624.195217 207.898487a15.992191 15.992191 0 0 1 15.992191-15.992191h79.960957a15.992191 15.992191 0 0 1 15.992191 15.992191v175.914105a15.992191 15.992191 0 0 1-15.992191 15.992191h-79.960957a15.992191 15.992191 0 0 1-15.992191-15.992191z" fill="#154E84" p-id="2021"></path><path d="M656.1796 223.890678v143.929722h47.976574v-143.929722h-47.976574z" fill="#FFC200" p-id="2022"></path><path d="M384.312347 383.812592h-191.906295l65.837852 368.69997a95.953148 95.953148 0 0 0 94.463875 79.081386h319.084198a95.953148 95.953148 0 0 0 94.463875-79.081386L832.093704 383.812592h-191.906296a127.937531 127.937531 0 0 1-255.875061 0z" fill="#FFFFFF" p-id="2023"></path><path d="M384.312347 367.8204h-191.906295a15.992191 15.992191 0 0 0-15.742314 18.80082l65.837853 368.699971a111.945339 111.945339 0 0 0 110.206188 92.264949h319.084198a111.945339 111.945339 0 0 0 110.206188-92.264949l65.837853-368.699971a15.992191 15.992191 0 0 0-15.742314-18.80082h-191.906296a15.992191 15.992191 0 0 0-15.992191 15.992192 111.945339 111.945339 0 0 1-223.890678 0 15.992191 15.992191 0 0 0-15.992192-15.992192z m-15.11262 31.984383a143.929722 143.929722 0 0 0 286.100302 0h157.693002l-62.479493 349.889156a79.960957 79.960957 0 0 1-78.721561 65.907818H352.707779a79.960957 79.960957 0 0 1-78.721561-65.907818L211.506725 399.804783z" fill="#154E84" p-id="2024"></path><path d="M794.97183 575.718887a15.992191 15.992191 0 0 1 15.742313 18.80082l-22.848843 127.937531a15.992191 15.992191 0 0 1-15.742313 13.183562h-519.746218a15.992191 15.992191 0 0 1-15.742313-13.183562l-22.848844-127.937531a15.992191 15.992191 0 0 1 15.742314-18.80082z" fill="#154E84" p-id="2025"></path><path d="M248.628599 607.70327l17.14163 95.953148h492.959298l17.14163-95.953148h-527.242558z" fill="#52ABE2" p-id="2026"></path></svg>